<svg width="15" height="14" viewBox="0 0 15 14" fill="none" xmlns="http://www.w3.org/2000/svg">
<path d="M14.5848 3.22308C14.3614 2.70977 14.0392 2.24461 13.6364 1.85365C13.2332 1.46152 12.7579 1.1499 12.2362 0.93573C11.6953 0.712772 11.1151 0.59865 10.5293 0.599987C9.70759 0.599987 8.90583 0.823264 8.20908 1.24501C8.0424 1.3459 7.88405 1.45671 7.73403 1.57745C7.58401 1.45671 7.42566 1.3459 7.25897 1.24501C6.56223 0.823264 5.76047 0.599987 4.93871 0.599987C4.34697 0.599987 3.77357 0.712453 3.23185 0.93573C2.70845 1.15074 2.23673 1.46002 1.83169 1.85365C1.4283 2.24417 1.10607 2.70944 0.883243 3.22308C0.65155 3.75729 0.533203 4.32458 0.533203 4.90841C0.533203 5.45916 0.64655 6.03307 0.871575 6.6169C1.05993 7.1048 1.32996 7.61089 1.675 8.12195C2.22173 8.93071 2.97348 9.7742 3.90692 10.6293C5.45377 12.0467 6.98561 13.0258 7.05062 13.0655L7.44566 13.3169C7.62068 13.4277 7.84571 13.4277 8.02073 13.3169L8.41577 13.0655C8.48078 13.0241 10.011 12.0467 11.5595 10.6293C12.4929 9.7742 13.2447 8.93071 13.7914 8.12195C14.1364 7.61089 14.4081 7.1048 14.5948 6.6169C14.8198 6.03307 14.9332 5.45916 14.9332 4.90841C14.9349 4.32458 14.8165 3.75729 14.5848 3.22308Z" fill="#FF8585"/>
</svg>
