<svg width="12" height="12" viewBox="0 0 12 12" fill="none" xmlns="http://www.w3.org/2000/svg">
<path d="M7.07743 5.13122V5.25622H7.20243H10.6656C10.964 5.25622 11.1793 5.37053 11.3218 5.53629C11.4666 5.70466 11.542 5.93335 11.542 6.16669C11.542 6.40003 11.4666 6.62872 11.3218 6.79708C11.1793 6.96284 10.964 7.07715 10.6656 7.07715H7.20243H7.07743V7.20215V10.6652C7.07743 10.9636 6.96311 11.179 6.79735 11.3215C6.62897 11.4663 6.40027 11.5417 6.16693 11.5417C5.93358 11.5417 5.70488 11.4663 5.53651 11.3215C5.37074 11.179 5.25643 10.9636 5.25643 10.6652V7.20215V7.07715H5.13143H1.66829C1.36994 7.07715 1.15459 6.96285 1.01211 6.79709C0.867391 6.62872 0.791992 6.40003 0.791992 6.16669C0.791992 5.93334 0.867391 5.70465 1.01211 5.53628C1.15459 5.37052 1.36994 5.25622 1.66829 5.25622H5.13143H5.25643V5.13122V1.66821C5.25643 1.36977 5.37074 1.15437 5.53651 1.01185C5.70488 0.867101 5.93358 0.791687 6.16693 0.791687C6.40027 0.791687 6.62897 0.867101 6.79735 1.01185C6.96311 1.15437 7.07743 1.36977 7.07743 1.66821V5.13122Z" fill="#D3D3D3" stroke="#DCDCDC" stroke-width="0.25"/>
</svg>
