<svg width="21" height="20" viewBox="0 0 21 20" fill="none" xmlns="http://www.w3.org/2000/svg">
<path d="M7.64045 18.1818C8.09879 18.1818 8.47035 17.8155 8.47035 17.3637C8.47035 16.9118 8.09879 16.5455 7.64045 16.5455C7.18211 16.5455 6.81055 16.9118 6.81055 17.3637C6.81055 17.8155 7.18211 18.1818 7.64045 18.1818Z" stroke="#9B9B9B" stroke-width="2" stroke-linecap="round" stroke-linejoin="round"/>
<path d="M16.7674 18.1818C17.2257 18.1818 17.5973 17.8155 17.5973 17.3637C17.5973 16.9118 17.2257 16.5455 16.7674 16.5455C16.3091 16.5455 15.9375 16.9118 15.9375 17.3637C15.9375 17.8155 16.3091 18.1818 16.7674 18.1818Z" stroke="#9B9B9B" stroke-width="2" stroke-linecap="round" stroke-linejoin="round"/>
<path d="M1 1H4.3196L6.54373 11.9555C6.61962 12.3321 6.82748 12.6705 7.13092 12.9113C7.43436 13.1522 7.81405 13.2801 8.20353 13.2727H16.2702C16.6596 13.2801 17.0393 13.1522 17.3428 12.9113C17.6462 12.6705 17.8541 12.3321 17.93 11.9555L19.2578 5.09091H5.1495" stroke="#9B9B9B" stroke-width="2" stroke-linecap="round" stroke-linejoin="round"/>
</svg>
