<svg width="17" height="16" viewBox="0 0 17 16" fill="none" xmlns="http://www.w3.org/2000/svg">
<g clip-path="url(#clip0_12_803)">
<path d="M13.6145 12.4875C13.0091 11.0281 11.5542 10 9.85839 10H7.82974C6.13392 10 4.67901 11.0281 4.07358 12.4875C2.94515 11.3188 2.25097 9.74063 2.25097 8C2.25097 4.40937 5.20202 1.5 8.84407 1.5C12.4861 1.5 15.4372 4.40937 15.4372 8C15.4372 9.74063 14.743 11.3188 13.6145 12.4875ZM12.3435 13.5094C11.3292 14.1375 10.131 14.5 8.84407 14.5C7.55715 14.5 6.35898 14.1375 5.34149 13.5094C5.57288 12.3625 6.59988 11.5 7.82974 11.5H9.85839C11.0883 11.5 12.1153 12.3625 12.3466 13.5094H12.3435ZM8.84407 16C10.9962 16 13.0602 15.1571 14.5819 13.6569C16.1037 12.1566 16.9586 10.1217 16.9586 8C16.9586 5.87827 16.1037 3.84344 14.5819 2.34315C13.0602 0.842855 10.9962 0 8.84407 0C6.69195 0 4.62797 0.842855 3.1062 2.34315C1.58442 3.84344 0.729492 5.87827 0.729492 8C0.729492 10.1217 1.58442 12.1566 3.1062 13.6569C4.62797 15.1571 6.69195 16 8.84407 16ZM8.84407 7.5C8.5078 7.5 8.1853 7.3683 7.94752 7.13388C7.70975 6.89946 7.57616 6.58152 7.57616 6.25C7.57616 5.91848 7.70975 5.60054 7.94752 5.36612C8.1853 5.1317 8.5078 5 8.84407 5C9.18033 5 9.50283 5.1317 9.74061 5.36612C9.97839 5.60054 10.112 5.91848 10.112 6.25C10.112 6.58152 9.97839 6.89946 9.74061 7.13388C9.50283 7.3683 9.18033 7.5 8.84407 7.5ZM6.05468 6.25C6.05468 6.97935 6.34856 7.67882 6.87167 8.19454C7.39478 8.71027 8.10427 9 8.84407 9C9.58386 9 10.2933 8.71027 10.8165 8.19454C11.3396 7.67882 11.6335 6.97935 11.6335 6.25C11.6335 5.52065 11.3396 4.82118 10.8165 4.30546C10.2933 3.78973 9.58386 3.5 8.84407 3.5C8.10427 3.5 7.39478 3.78973 6.87167 4.30546C6.34856 4.82118 6.05468 5.52065 6.05468 6.25Z" fill="#9B9B9B"/>
</g>
<defs>
<clipPath id="clip0_12_803">
<rect width="16.2291" height="16" fill="white" transform="translate(0.729492)"/>
</clipPath>
</defs>
</svg>
